<mxfile host="app.diagrams.net" modified="2023-12-02T02:15:04.341Z" agent="Mozilla/5.0 (Windows NT 10.0; Win64; x64) AppleWebKit/537.36 (KHTML, like Gecko) Chrome/119.0.0.0 Safari/537.36 Edg/119.0.0.0" version="22.1.5" etag="RWQfs4pO_iH1L5bzm7iA" type="github">
  <diagram name="Page-1" id="4DBj8vsAXgfXOYB1F3cB">
    <mxGraphModel>
      <root>
        <mxCell id="0" />
        <mxCell id="1" parent="0" />
      </root>
    </mxGraphModel>
  </diagram>
</mxfile>
